<svg width="75" height="72" viewBox="0 0 75 72" fill="none" xmlns="http://www.w3.org/2000/svg">
<path d="M45.4522 30.3698C44.8544 30.3698 44.3698 30.8418 44.3698 31.4244V31.7057C44.3698 32.2883 44.8544 32.7604 45.4522 32.7604C46.05 32.7604 46.5346 32.2883 46.5346 31.7057V31.4244C46.5346 30.8418 46.05 30.3698 45.4522 30.3698Z" fill="white"/>
<path d="M29.7722 30.3698C29.1744 30.3698 28.6898 30.8418 28.6898 31.4244V31.7057C28.6898 32.2883 29.1744 32.7604 29.7722 32.7604C30.37 32.7604 30.8546 32.2883 30.8546 31.7057V31.4244C30.8546 30.8418 30.37 30.3698 29.7722 30.3698Z" fill="white"/>
<path d="M64.0626 24.4605L57.1493 19.8488V18.9423C57.1493 9.20574 49.0199 1.28447 39.0277 1.28447H38.6946V1.05469C38.6946 0.472078 38.21 0 37.6122 0C37.0145 0 36.5298 0.472078 36.5298 1.05469V1.28447H36.1969C30.2716 1.28447 24.7094 4.11652 21.3179 8.85994C20.9761 9.33778 21.0968 9.9952 21.5873 10.3282C22.0779 10.6609 22.7526 10.5438 23.0942 10.0657C26.081 5.88797 30.9793 3.39384 36.1969 3.39384H39.0276C47.8261 3.39384 54.9843 10.369 54.9843 18.9423V19.3494H47.9671C47.9634 19.3494 47.9597 19.35 47.956 19.35H46.5688C45.971 19.35 45.4864 19.8221 45.4864 20.4047C45.4864 20.9873 45.971 21.4594 46.5688 21.4594H55.7315L62.6165 26.0522H57.6726H53.7918H21.4326H17.5519H12.6081L19.4933 21.4594H42.2405C42.8383 21.4594 43.3229 20.9873 43.3229 20.4047C43.3229 19.8221 42.8383 19.35 42.2405 19.35H41.2315C41.2277 19.35 41.2241 19.3494 41.2203 19.3494H20.2401V18.9423C20.2401 17.0906 20.5705 15.2795 21.2221 13.5592C21.429 13.0127 21.1421 12.4064 20.5814 12.2046C20.0206 12.0026 19.3982 12.2826 19.1912 12.8288C18.4509 14.7836 18.0755 16.8404 18.0755 18.9423V19.8488L11.161 24.4612C10.4044 24.9673 10.0786 25.8809 10.3504 26.7348C10.6221 27.5881 11.4208 28.1614 12.3378 28.1614H16.4696V28.9491C16.4696 29.6083 16.5386 30.2621 16.6727 30.9032C14.8765 31.7104 13.6596 33.491 13.6596 35.4781C13.6596 38.2548 15.9779 40.5139 18.8277 40.5139H22.4681C24.2623 43.7063 27.0608 46.2413 30.454 47.7475V48.817L27.0674 49.0094C26.5457 49.039 26.1202 49.4276 26.0562 49.9328L25.9546 50.7319C25.6558 50.8359 25.363 50.951 25.0765 51.0768C25.0487 51.0889 25.0211 51.1014 24.9934 51.1137C24.8764 51.1661 24.7603 51.2204 24.6455 51.2764C24.5776 51.3091 24.5099 51.3423 24.4428 51.3764C24.3851 51.4059 24.328 51.4364 24.2708 51.4668C22.3758 52.4663 20.7835 53.9519 19.6656 55.8018C19.6386 55.8465 19.6165 55.8931 19.5967 55.9405C18.5864 57.6613 18.0152 59.6392 18.0152 61.7068V70.9453C18.0152 71.5279 18.4998 72 19.0975 72H21.5292H53.695H56.1266C56.7244 72 57.209 71.5279 57.209 70.9453V61.7071C57.209 58.6281 55.9953 55.7459 53.7907 53.5556C53.7595 53.5247 53.7289 53.4933 53.6974 53.4628C53.6611 53.4275 53.6269 53.3908 53.5901 53.3558C53.5652 53.3322 53.5394 53.3104 53.513 53.2897C53.3413 53.1297 53.1663 52.9727 52.9844 52.8221C52.5289 52.4448 51.8457 52.4992 51.4588 52.9433C51.0718 53.3873 51.1275 54.053 51.5832 54.4299C51.84 54.6425 52.0842 54.867 52.316 55.1021C52.3251 55.1112 52.3345 55.1202 52.3436 55.1295C52.4152 55.2026 52.4852 55.2772 52.5543 55.3524C52.5686 55.3679 52.5826 55.3836 52.5967 55.3991C52.8933 55.7267 53.1668 56.0731 53.4146 56.4375C51.4357 61.2696 51.0304 65.7849 52.2045 69.8906H40.28C42.4163 67.6596 44.1698 65.0168 45.447 62.0973L49.2175 65.2527C49.4182 65.4207 49.6695 65.5073 49.9229 65.5073C50.0975 65.5073 50.2733 65.4661 50.4341 65.3822C50.8281 65.1762 51.0518 64.7554 50.9969 64.323L49.1684 49.9328C49.1042 49.4276 48.6789 49.0393 48.1572 49.0096L44.7706 48.8173V47.7477C48.1645 46.241 50.9629 43.7057 52.7565 40.5141H56.3969C59.2466 40.5141 61.565 38.2551 61.565 35.4783C61.565 33.4911 60.3482 31.7105 58.552 30.9033C58.6861 30.2621 58.7551 29.6083 58.7551 28.9492V28.1616H62.8869C63.8039 28.1616 64.6028 27.5882 64.8745 26.7349C65.146 25.8809 64.8202 24.9673 64.0626 24.4605ZM18.6344 28.1614H20.3502V28.1616V32.4394C20.3502 32.598 20.3534 32.7607 20.3582 32.9266C20.3593 32.964 20.3605 33.0013 20.3618 33.0387C20.3637 33.0917 20.3647 33.1428 20.367 33.1972C20.3671 33.2024 20.3674 33.2076 20.3677 33.2128L20.3712 33.2785C20.374 33.3319 20.3768 33.3852 20.3807 33.4389C20.3814 33.4552 20.3827 33.4721 20.3837 33.4887C20.385 33.5098 20.3863 33.5309 20.3878 33.5521C20.3922 33.6315 20.3984 33.7098 20.4049 33.7874C20.396 33.7769 20.3866 33.7665 20.3778 33.7558C20.3358 33.7053 20.2954 33.6537 20.2548 33.6022C20.2218 33.5603 20.1882 33.5187 20.1561 33.4761C20.1163 33.4233 20.0782 33.3695 20.0398 33.3159C20.0089 33.2727 19.9776 33.2301 19.9477 33.1864C19.9101 33.1312 19.8741 33.075 19.838 33.019C19.8098 32.9753 19.7808 32.932 19.7535 32.8875C19.7178 32.8298 19.6841 32.7707 19.65 32.712C19.6245 32.6679 19.598 32.6244 19.5732 32.5797C19.5392 32.5183 19.5073 32.4555 19.4751 32.3931C19.4527 32.3499 19.4293 32.3073 19.4078 32.2637C19.3748 32.1967 19.344 32.1285 19.313 32.0602C19.2945 32.0199 19.2749 31.9801 19.2573 31.9395C19.2232 31.8613 19.1919 31.7818 19.1605 31.7024C19.1479 31.6707 19.1342 31.6396 19.1221 31.6077C19.0795 31.4956 19.0394 31.3824 19.0022 31.268C18.7581 30.5191 18.6344 29.739 18.6344 28.9491V28.1614ZM18.8277 38.4047C17.1716 38.4047 15.8244 37.0919 15.8244 35.4783C15.8244 34.4115 16.4274 33.4471 17.3416 32.9369C17.3641 32.9858 17.3884 33.0339 17.4118 33.0825C17.4298 33.1201 17.4475 33.158 17.4662 33.1954C17.5213 33.3065 17.5783 33.4166 17.6376 33.5254C17.6435 33.5363 17.6489 33.5472 17.6548 33.558C17.7205 33.6774 17.789 33.795 17.8597 33.9114C17.8799 33.9449 17.9011 33.9777 17.9218 34.0109C17.9737 34.0942 18.0268 34.1771 18.0814 34.2588C18.1068 34.2969 18.1323 34.3347 18.1582 34.3724C18.2137 34.4533 18.2707 34.5331 18.3286 34.6123C18.352 34.6442 18.3748 34.6764 18.3985 34.7081C18.4797 34.8162 18.5628 34.9231 18.6487 35.0279C18.6605 35.0423 18.6731 35.0563 18.6851 35.0708C18.76 35.1612 18.8365 35.2502 18.9146 35.3379C18.9443 35.3713 18.9746 35.404 19.0048 35.4369C19.0684 35.5065 19.133 35.5752 19.1989 35.643C19.2315 35.6766 19.2639 35.71 19.297 35.7432C19.3702 35.8165 19.4446 35.8885 19.5203 35.9596C19.5449 35.9828 19.5689 36.0066 19.5937 36.0295C19.6934 36.1215 19.7953 36.2116 19.8992 36.2998C19.9259 36.3225 19.9535 36.3442 19.9805 36.3666C20.0597 36.4324 20.1398 36.4974 20.2212 36.561C20.259 36.5905 20.2973 36.6195 20.3355 36.6484C20.4108 36.7055 20.4872 36.7615 20.5644 36.8165C20.6022 36.8435 20.6397 36.8706 20.678 36.8972C20.7754 36.9647 20.8743 37.0306 20.9744 37.0949C20.9914 37.1059 21.008 37.1174 21.0252 37.1284C21.0271 37.1296 21.029 37.1309 21.0308 37.132C21.0308 37.1322 21.031 37.1323 21.031 37.1326C21.0881 37.3241 21.1499 37.5144 21.214 37.7038C21.2286 37.7467 21.243 37.7896 21.2579 37.8323C21.3227 38.0188 21.3899 38.2043 21.4613 38.3882C21.4635 38.3937 21.4652 38.3992 21.4674 38.4047H18.8277ZM20.7601 69.8906H20.1802V61.7071H20.1801C20.1801 60.8487 20.3019 60.0097 20.528 59.2068C21.7761 63.0855 21.8506 66.6055 20.7601 69.8906ZM54.701 59.1926C54.926 60.0015 55.0445 60.8445 55.0445 61.7071V69.8906H54.4646C53.3726 66.6014 53.4485 63.0768 54.701 59.1926ZM28.0178 51.6649C28.0185 51.6592 28.0193 51.6534 28.0199 51.6475L28.0941 51.0643L30.454 50.9302V51.0581C30.454 51.2487 30.507 51.4357 30.6074 51.5994L34.4845 57.9185L33.3603 57.2662C32.9607 57.0344 32.454 57.0772 32.1014 57.3722L26.7202 61.8754L28.0178 51.6649ZM32.6188 50.7669V49.8122V48.545C32.6289 48.548 32.6391 48.5505 32.6492 48.5535C32.8244 48.6046 33.0005 48.6529 33.1772 48.6986C33.2189 48.7094 33.2607 48.7197 33.3024 48.7301C33.4596 48.7696 33.6173 48.807 33.7755 48.842C33.8041 48.8483 33.8325 48.8552 33.8611 48.8614C34.0406 48.9002 34.2209 48.9357 34.4016 48.9689C34.4447 48.9767 34.4879 48.9842 34.531 48.9918C34.6965 49.0209 34.8624 49.0479 35.0289 49.0722C35.0506 49.0755 35.0722 49.0791 35.0939 49.0822C35.2771 49.1082 35.461 49.1307 35.6454 49.1511C35.69 49.156 35.7346 49.1605 35.7792 49.1652C35.9549 49.1832 36.1311 49.1992 36.3077 49.212C36.3201 49.213 36.3326 49.2141 36.3451 49.2151C36.5319 49.2282 36.7192 49.2376 36.9069 49.2449C36.9525 49.2467 36.9981 49.2483 37.0439 49.2497C37.233 49.2556 37.4223 49.2597 37.6122 49.2597C37.8021 49.2597 37.9915 49.2556 38.1806 49.2497C38.2262 49.2483 38.2719 49.2467 38.3175 49.2449C38.5053 49.2376 38.6926 49.2283 38.8793 49.2151C38.8918 49.2143 38.9042 49.213 38.9167 49.212C39.0934 49.1992 39.2696 49.1832 39.4452 49.1652C39.4898 49.1605 39.5343 49.156 39.5787 49.1511C39.7633 49.1307 39.9474 49.1082 40.1309 49.0822C40.1521 49.0793 40.1732 49.0756 40.1944 49.0725C40.3615 49.048 40.5279 49.0209 40.694 48.9918C40.7367 48.9843 40.7796 48.9769 40.8222 48.969C41.0033 48.9358 41.184 48.9002 41.3638 48.8613C41.3916 48.8552 41.4192 48.8486 41.4471 48.8424C41.6063 48.8071 41.7649 48.7696 41.923 48.7298C41.9642 48.7195 42.0054 48.7094 42.0464 48.6987C42.2234 48.6529 42.3996 48.6046 42.5751 48.5533C42.5852 48.5504 42.5954 48.548 42.6055 48.545V49.8122V50.7669L37.6122 58.9056L32.6188 50.7669ZM23.0201 69.8908V69.8906C24.1933 65.7882 23.7895 61.2768 21.8146 56.449C22.6336 55.2434 23.7267 54.2191 25.0214 53.4749C25.0458 53.461 25.0703 53.4472 25.0949 53.4336C25.1727 53.3897 25.2515 53.3471 25.3307 53.3052C25.4049 53.2664 25.4796 53.2284 25.5551 53.1914C25.5861 53.1761 25.617 53.1605 25.6482 53.1456L24.2279 64.3231C24.1731 64.7556 24.3966 65.1763 24.7906 65.3822C24.9514 65.4663 25.1272 65.5075 25.3018 65.5075C25.5552 65.5075 25.8065 65.4209 26.0072 65.2528L29.7777 62.0975C31.055 65.017 32.8084 67.6596 34.9448 69.8908H23.0201ZM37.6122 69.516C34.9931 67.1182 32.8999 64.0808 31.5052 60.6516L32.9211 59.4665L37.0583 61.8671C37.0612 61.8688 37.0644 61.8697 37.0673 61.8713C37.0832 61.8803 37.0998 61.8879 37.1161 61.8962C37.1325 61.9045 37.1491 61.9124 37.166 61.9199C37.182 61.9269 37.1976 61.9346 37.2139 61.941C37.2272 61.9462 37.2409 61.9495 37.2543 61.9542C37.2608 61.9564 37.2673 61.9584 37.2738 61.9605C37.2885 61.9653 37.303 61.9708 37.318 61.975C37.3351 61.9798 37.3526 61.9833 37.3701 61.9872C37.3885 61.9914 37.407 61.9948 37.4258 61.9979C37.4422 62.0007 37.4582 62.0048 37.475 62.0069C37.4822 62.0077 37.4894 62.0075 37.4966 62.0083C37.5095 62.0096 37.5225 62.0099 37.5353 62.0108C37.5532 62.0121 37.5711 62.0139 37.589 62.0142C37.5968 62.0144 37.6044 62.0158 37.6124 62.0158C37.6203 62.0158 37.628 62.0145 37.6357 62.0142C37.6538 62.0138 37.6715 62.012 37.6894 62.0108C37.7023 62.0099 37.7153 62.0097 37.728 62.0083C37.7352 62.0076 37.7425 62.0079 37.7496 62.0069C37.7662 62.0048 37.7824 62.0007 37.7987 61.9979C37.8173 61.9947 37.8358 61.9913 37.8544 61.9872C37.8719 61.9833 37.8893 61.9798 37.9065 61.975C37.9215 61.9709 37.9359 61.9653 37.9508 61.9605C37.9571 61.9584 37.9636 61.9564 37.97 61.9542C37.9834 61.9495 37.9971 61.946 38.0104 61.941C38.0267 61.9346 38.0423 61.927 38.0583 61.92C38.0752 61.9125 38.0919 61.9047 38.1085 61.8962C38.1248 61.8881 38.1413 61.8805 38.1572 61.8715C38.1601 61.8698 38.1632 61.869 38.1661 61.8673L42.3033 59.4667L43.7192 60.6517C42.3245 64.0808 40.2313 67.1182 37.6122 69.516ZM47.1308 51.0642L48.5044 61.8754L43.123 57.3722C42.9219 57.204 42.6706 57.1177 42.4178 57.1177C42.2273 57.1177 42.0357 57.1666 41.8642 57.2662L40.7399 57.9185L44.617 51.5994C44.7173 51.4358 44.7704 51.2488 44.7704 51.0581V50.9302L47.1308 51.0642ZM52.7093 32.4394C52.7093 32.5818 52.7065 32.7241 52.7024 32.8662C52.7015 32.8982 52.7003 32.9311 52.6992 32.9638C52.6941 33.1027 52.6878 33.2415 52.6788 33.38C52.678 33.389 52.6775 33.3982 52.677 33.4072C52.6676 33.5486 52.6559 33.6898 52.6423 33.8307C52.6409 33.8455 52.6399 33.8593 52.6384 33.8743C52.6234 34.0252 52.6062 34.1757 52.5866 34.3259L52.5839 34.3455C52.5445 34.6431 52.4956 34.9388 52.4377 35.2327C52.4082 35.3812 52.3765 35.5299 52.3424 35.6778C52.3405 35.6857 52.3391 35.6937 52.3372 35.7016C52.2996 35.8639 52.2593 36.0253 52.2166 36.1848C52.184 36.3059 52.1496 36.4265 52.1138 36.5467C51.8627 37.389 51.5341 38.2087 51.1343 38.989C49.4881 42.2107 46.6993 44.7279 43.2808 46.0773C41.4819 46.7893 39.5747 47.1502 37.6122 47.1502C37.3669 47.1502 37.1224 47.1445 36.8789 47.1333C36.747 47.1272 36.6154 47.1191 36.4841 47.1097C35.2822 47.0237 34.1054 46.8001 32.966 46.4406C32.8819 46.414 32.7982 46.3859 32.7145 46.3579C32.684 46.3478 32.6534 46.3382 32.623 46.3278C32.3948 46.2497 32.1682 46.1663 31.9434 46.0773C31.9431 46.0772 31.9428 46.0772 31.9425 46.077C28.5249 44.7279 25.7361 42.2107 24.0892 38.9881C24.0322 38.8768 23.9765 38.7645 23.9224 38.6516C23.5434 37.861 23.2362 37.033 23.0076 36.1851C22.9649 36.0255 22.9245 35.8639 22.8868 35.7013C22.8853 35.695 22.8842 35.6887 22.8827 35.6825C22.8484 35.5333 22.8164 35.3834 22.7866 35.2333C22.7289 34.9398 22.68 34.6442 22.6406 34.347L22.6375 34.325C22.6179 34.175 22.6006 34.0244 22.5857 33.8735C22.5844 33.8605 22.5834 33.8472 22.5821 33.8342C22.5684 33.6922 22.5567 33.5499 22.5472 33.4073C22.5466 33.3982 22.5462 33.389 22.5453 33.38C22.5364 33.2415 22.5299 33.1027 22.525 32.9639C22.5238 32.9311 22.5227 32.8982 22.5218 32.8662C22.5176 32.724 22.5149 32.5818 22.5149 32.4394V28.1616H52.7093V32.4394ZM54.8364 33.5521C54.8378 33.5312 54.839 33.5101 54.8404 33.4891C54.8415 33.4725 54.8426 33.4567 54.8435 33.4389C54.8472 33.3863 54.8501 33.3343 54.8529 33.282L54.8565 33.2137C54.8567 33.2082 54.857 33.2025 54.8573 33.1971C54.8596 33.1426 54.8607 33.0916 54.8625 33.0386C54.8638 33.0012 54.8651 32.9639 54.8661 32.9265C54.8709 32.7606 54.8741 32.5979 54.8741 32.4392V28.1614H56.59V28.9491H56.5902C56.5902 29.739 56.4665 30.5191 56.2224 31.2681C56.1852 31.3824 56.1452 31.4954 56.1027 31.6073C56.0898 31.641 56.0752 31.674 56.062 31.7076C56.0312 31.7853 56.0005 31.8631 55.9671 31.9395C55.9498 31.9792 55.9306 32.0182 55.9126 32.0577C55.8811 32.1266 55.85 32.1958 55.8165 32.2637C55.7954 32.3063 55.7726 32.348 55.7508 32.3902C55.7179 32.4537 55.6856 32.5174 55.6509 32.5799C55.6265 32.6239 55.6004 32.6669 55.5752 32.7104C55.5408 32.7696 55.5069 32.829 55.471 32.8873C55.4436 32.9317 55.4145 32.9752 55.3861 33.019C55.35 33.0749 55.3142 33.1311 55.2767 33.186C55.2466 33.2301 55.2148 33.2733 55.1836 33.3169C55.1457 33.3699 55.108 33.423 55.0688 33.4752C55.0359 33.5188 55.0015 33.5616 54.9676 33.6045C54.9278 33.6548 54.8882 33.7054 54.8471 33.7548C54.838 33.7657 54.8285 33.7763 54.8192 33.7871C54.8259 33.7092 54.8319 33.6312 54.8364 33.5521ZM59.4001 35.4781C59.4001 37.092 58.0528 38.4047 56.3968 38.4047H53.7572C53.7593 38.3991 53.7612 38.3932 53.7635 38.3875C53.8347 38.2042 53.9018 38.0192 53.9663 37.8333C53.9815 37.7899 53.9962 37.7463 54.0109 37.7027C54.0747 37.5141 54.1363 37.3247 54.1932 37.1339C54.1933 37.1333 54.1936 37.1326 54.1938 37.132C54.1956 37.1308 54.1975 37.1295 54.1994 37.1284C54.2166 37.1175 54.233 37.1059 54.2502 37.0949C54.3503 37.0306 54.4492 36.9647 54.5466 36.8972C54.5849 36.8708 54.6224 36.8435 54.6602 36.8165C54.7374 36.7613 54.8137 36.7054 54.8891 36.6484C54.9273 36.6195 54.9656 36.5905 55.0034 36.561C55.0848 36.4974 55.1649 36.4324 55.2441 36.3666C55.2711 36.3442 55.2987 36.3225 55.3254 36.2998C55.4291 36.2116 55.5309 36.1216 55.6307 36.0297C55.6558 36.0066 55.68 35.9826 55.7048 35.9592C55.7801 35.8883 55.8544 35.8165 55.9273 35.7435C55.9605 35.7102 55.9931 35.6766 56.0259 35.6428C56.0914 35.5753 56.1558 35.5068 56.2193 35.4375C56.2497 35.4043 56.2803 35.3713 56.3102 35.3377C56.3878 35.2505 56.4639 35.1619 56.5384 35.072C56.5508 35.0571 56.5636 35.0426 56.5759 35.0276C56.6616 34.923 56.7446 34.8162 56.8257 34.7082C56.8497 34.6763 56.8727 34.6438 56.8963 34.6115C56.954 34.5327 57.0106 34.4534 57.0658 34.373C57.0921 34.3349 57.1179 34.2965 57.1436 34.2581C57.1978 34.1769 57.2503 34.095 57.3018 34.0121C57.3229 33.9782 57.3445 33.9448 57.3652 33.9107C57.4354 33.7947 57.5038 33.6776 57.5694 33.5586C57.5762 33.5464 57.5822 33.5339 57.589 33.5215C57.6474 33.4142 57.7036 33.3058 57.7578 33.1962C57.7769 33.158 57.7951 33.1193 57.8136 33.0806C57.8367 33.0327 57.8606 32.9851 57.8828 32.9368C58.7971 33.447 59.4001 34.4114 59.4001 35.4781Z" fill="white"/>
<path d="M26.5026 16.4431C26.4882 16.3758 26.468 16.3095 26.4405 16.2448C26.4131 16.1816 26.3799 16.1197 26.3409 16.0634C26.302 16.0058 26.2572 15.9509 26.2067 15.9031C26.1562 15.8539 26.1014 15.8103 26.0422 15.7723C25.983 15.7342 25.921 15.7005 25.856 15.6753C25.7897 15.6487 25.7218 15.6275 25.6525 15.6148C25.5126 15.5867 25.3697 15.5867 25.2297 15.6148C25.1604 15.6275 25.0926 15.6486 25.0276 15.6753C24.9613 15.7006 24.8992 15.7344 24.84 15.7723C24.7809 15.8103 24.726 15.8539 24.6755 15.9031C24.6264 15.9509 24.5803 16.0056 24.5413 16.0634C24.5023 16.1197 24.4691 16.1816 24.4417 16.2448C24.4143 16.3095 24.3941 16.3758 24.3797 16.4431C24.3667 16.5106 24.3595 16.5795 24.3595 16.6484C24.3595 16.7173 24.3667 16.7862 24.3797 16.8552C24.3941 16.9227 24.4143 16.9887 24.4417 17.052C24.4691 17.1153 24.5023 17.177 24.5413 17.2348C24.5803 17.2925 24.6264 17.3459 24.6755 17.3953C24.726 17.4431 24.7809 17.488 24.84 17.5261C24.8992 17.564 24.9613 17.5964 25.0276 17.623C25.0926 17.6498 25.1604 17.6694 25.2297 17.6836C25.3004 17.6962 25.3711 17.7033 25.4418 17.7033C25.5126 17.7033 25.5833 17.6962 25.6525 17.6836C25.7218 17.6694 25.7897 17.6498 25.856 17.623C25.921 17.5964 25.983 17.5639 26.0422 17.5261C26.1014 17.488 26.1561 17.4431 26.2067 17.3953C26.2572 17.3459 26.302 17.2926 26.3409 17.2348C26.3799 17.1772 26.4131 17.1153 26.4405 17.052C26.468 16.9887 26.4882 16.9227 26.5026 16.8552C26.517 16.7864 26.5242 16.7175 26.5242 16.6484C26.5242 16.5795 26.517 16.5108 26.5026 16.4431Z" fill="white"/>
<path d="M34.6163 16.4431C34.6033 16.3758 34.5816 16.3095 34.5542 16.2448C34.5282 16.1816 34.495 16.1197 34.4545 16.0634C34.4155 16.0058 34.3708 15.9509 34.3203 15.9031C34.2712 15.8539 34.2149 15.8103 34.1557 15.7723C34.098 15.7342 34.0345 15.7005 33.9696 15.6753C33.9032 15.6487 33.8353 15.6275 33.7661 15.6148C33.6275 15.5867 33.4832 15.5867 33.3432 15.6148C33.2739 15.6275 33.2061 15.6486 33.1412 15.6753C33.0762 15.7006 33.0127 15.7344 32.955 15.7723C32.8944 15.8103 32.8395 15.8539 32.789 15.9031C32.74 15.9509 32.6952 16.0056 32.6548 16.0634C32.6159 16.1197 32.5827 16.1816 32.5552 16.2448C32.5293 16.3095 32.5076 16.3758 32.4946 16.4431C32.4802 16.5106 32.473 16.5795 32.473 16.6484C32.473 16.7173 32.4802 16.7862 32.4946 16.8552C32.5076 16.9227 32.5293 16.9887 32.5552 17.052C32.5827 17.1153 32.6159 17.177 32.6548 17.2348C32.6952 17.2925 32.74 17.3459 32.789 17.3953C32.8395 17.4431 32.8944 17.488 32.955 17.5261C33.0127 17.564 33.0762 17.5964 33.1412 17.623C33.2061 17.6498 33.2739 17.6694 33.3432 17.6836C33.4139 17.6962 33.4847 17.7033 33.5554 17.7033C33.6261 17.7033 33.6968 17.6962 33.7661 17.6836C33.8355 17.6694 33.9032 17.6498 33.9696 17.623C34.0345 17.5964 34.098 17.5639 34.1557 17.5261C34.2149 17.488 34.2712 17.4431 34.3203 17.3953C34.3708 17.3459 34.4155 17.2926 34.4545 17.2348C34.4949 17.1772 34.5281 17.1153 34.5542 17.052C34.5816 16.9887 34.6033 16.9227 34.6163 16.8552C34.6307 16.7864 34.6379 16.7175 34.6379 16.6484C34.6379 16.5795 34.6307 16.5108 34.6163 16.4431Z" fill="white"/>
<path d="M42.7312 16.4431C42.7168 16.3758 42.6966 16.3095 42.6691 16.2448C42.6417 16.1816 42.6085 16.1197 42.5695 16.0634C42.5291 16.0058 42.4844 15.9509 42.4353 15.9031C42.3848 15.8539 42.33 15.8103 42.2708 15.7723C42.2116 15.7342 42.1481 15.7005 42.0832 15.6753C42.0183 15.6487 41.9504 15.6275 41.8812 15.6148C41.7412 15.5867 41.5968 15.5867 41.4583 15.6148C41.389 15.6275 41.3212 15.6486 41.2548 15.6753C41.1899 15.7006 41.1264 15.7344 41.0686 15.7723C41.0095 15.8103 40.9532 15.8539 40.9041 15.9031C40.8536 15.9509 40.8089 16.0056 40.7684 16.0634C40.7295 16.1197 40.6963 16.1816 40.6703 16.2448C40.6429 16.3095 40.6212 16.3758 40.6083 16.4431C40.5938 16.5106 40.5866 16.5795 40.5866 16.6484C40.5866 16.7173 40.5938 16.7862 40.6083 16.8552C40.6212 16.9227 40.6429 16.9887 40.6703 17.052C40.6963 17.1153 40.7295 17.177 40.7684 17.2348C40.8089 17.2925 40.8536 17.3459 40.9041 17.3953C40.9532 17.4431 41.0095 17.488 41.0686 17.5261C41.1264 17.564 41.1899 17.5964 41.2548 17.623C41.3212 17.6498 41.389 17.6694 41.4583 17.6836C41.5276 17.6962 41.5983 17.7033 41.669 17.7033C41.7397 17.7033 41.8104 17.6962 41.8812 17.6836C41.9504 17.6694 42.0183 17.6498 42.0832 17.623C42.1481 17.5964 42.2116 17.5639 42.2708 17.5261C42.33 17.488 42.3848 17.4431 42.4353 17.3953C42.4844 17.3459 42.5291 17.2926 42.5695 17.2348C42.6085 17.1772 42.6417 17.1153 42.6691 17.052C42.6966 16.9887 42.7168 16.9227 42.7312 16.8552C42.7442 16.7864 42.7514 16.7175 42.7514 16.6484C42.7514 16.5795 42.7442 16.5108 42.7312 16.4431Z" fill="white"/>
<path d="M50.8448 16.4431C50.8304 16.3758 50.8102 16.3095 50.7828 16.2448C50.7554 16.1816 50.7222 16.1197 50.6832 16.0634C50.6442 16.0058 50.5981 15.9509 50.549 15.9031C50.4985 15.8539 50.4436 15.8103 50.3845 15.7723C50.3253 15.7342 50.2618 15.7005 50.1968 15.6753C50.1319 15.6487 50.0641 15.6275 49.9948 15.6148C49.8548 15.5867 49.7105 15.5867 49.5719 15.6148C49.5027 15.6275 49.4348 15.6486 49.3685 15.6753C49.3035 15.7006 49.2415 15.7344 49.1823 15.7723C49.1231 15.8103 49.0683 15.8539 49.0178 15.9031C48.9672 15.9509 48.9225 16.0056 48.8835 16.0634C48.8446 16.1197 48.8114 16.1816 48.784 16.2448C48.7565 16.3095 48.7363 16.3758 48.7219 16.4431C48.7075 16.5106 48.7003 16.5795 48.7003 16.6484C48.7003 16.7173 48.7075 16.7862 48.7219 16.8552C48.7363 16.9227 48.7565 16.9887 48.784 17.052C48.8114 17.1153 48.8446 17.177 48.8835 17.2348C48.9225 17.2925 48.9672 17.3459 49.0178 17.3953C49.0683 17.4431 49.1231 17.488 49.1823 17.5261C49.2415 17.564 49.3035 17.5964 49.3685 17.623C49.4348 17.6498 49.5027 17.6694 49.5719 17.6836C49.6412 17.6962 49.7119 17.7033 49.7826 17.7033C49.8534 17.7033 49.9255 17.6962 49.9948 17.6836C50.0641 17.6694 50.1319 17.6498 50.1968 17.623C50.2618 17.5964 50.3253 17.5639 50.3845 17.5261C50.4436 17.488 50.4985 17.4431 50.549 17.3953C50.5981 17.3459 50.6442 17.2926 50.6832 17.2348C50.7222 17.1772 50.7554 17.1153 50.7828 17.052C50.8102 16.9887 50.8304 16.9227 50.8448 16.8552C50.8593 16.7864 50.865 16.7175 50.865 16.6484C50.865 16.5795 50.8593 16.5108 50.8448 16.4431Z" fill="white"/>
<path d="M38.6729 64.2696C38.6599 64.2036 38.6383 64.1361 38.6123 64.0728C38.5849 64.0096 38.5517 63.9477 38.5127 63.8914C38.4723 63.8338 38.4276 63.7789 38.3771 63.7311C38.126 63.485 37.7522 63.3724 37.4 63.4427C37.3322 63.4555 37.2629 63.4764 37.198 63.5018C37.133 63.5285 37.0695 63.561 37.0118 63.5988C36.9526 63.6382 36.8964 63.6818 36.8473 63.731C36.7968 63.7788 36.752 63.8335 36.7116 63.8913C36.6727 63.9475 36.6395 64.0094 36.6135 64.0727C36.5859 64.136 36.5644 64.2035 36.5514 64.2696C36.537 64.3383 36.5298 64.4072 36.5298 64.4763C36.5298 64.5453 36.537 64.614 36.5514 64.683C36.5644 64.7491 36.5861 64.8166 36.6135 64.8799C36.6395 64.943 36.6727 65.005 36.7116 65.0613C36.752 65.1188 36.7968 65.1738 36.8473 65.2216C36.8964 65.2708 36.9526 65.3144 37.0118 65.3524C37.0695 65.3918 37.133 65.4242 37.198 65.4508C37.2629 65.4761 37.3322 65.4972 37.4 65.5099C37.4707 65.5241 37.5415 65.531 37.6122 65.531C37.8965 65.531 38.1765 65.4185 38.3771 65.2216C38.4276 65.1738 38.4723 65.1189 38.5127 65.0613C38.5517 65.005 38.5849 64.943 38.6123 64.8799C38.6383 64.8166 38.6599 64.749 38.6729 64.683C38.6874 64.6141 38.6946 64.5453 38.6946 64.4763C38.6946 64.4072 38.6874 64.3385 38.6729 64.2696Z" fill="white"/>
<path d="M48.5593 38.6849C48.3681 38.1331 47.7539 37.8374 47.1876 38.0238C46.8304 38.1415 46.5777 38.4233 46.4878 38.7537C45.7474 38.4917 45.0368 37.8317 44.3145 37.1202L44.1358 36.9437C43.4601 36.2752 42.7616 35.5839 41.8977 35.0741C40.5228 34.263 38.852 34.917 37.6123 36.1004C36.3726 34.9171 34.702 34.2632 33.3268 35.0741C32.463 35.5839 31.7644 36.2752 31.0887 36.9437L30.9101 37.1202C30.1878 37.8319 29.4773 38.4914 28.7368 38.7537C28.6471 38.4231 28.3942 38.1414 28.0369 38.0237C27.4706 37.8372 26.8562 38.1331 26.6649 38.6849C26.449 39.307 26.5712 39.9113 27.0003 40.3427C27.4195 40.7643 28.0193 40.9043 28.5385 40.9043C28.8099 40.9043 29.0593 40.8661 29.2496 40.8098C30.5156 40.4356 31.5245 39.5146 32.4493 38.6033L32.631 38.4238C33.2402 37.8211 33.8154 37.2518 34.4478 36.8787C34.8586 36.6359 35.9824 37.2579 36.7083 38.3286C36.7483 38.3878 36.7945 38.4435 36.8471 38.4946C36.8991 38.5453 36.9555 38.5897 37.0154 38.6282C37.0155 38.6284 37.0156 38.6284 37.0156 38.6284C37.0174 38.6295 37.0192 38.6304 37.0209 38.6315C37.0489 38.6493 37.0776 38.6659 37.107 38.681C37.1221 38.6887 37.1375 38.695 37.1528 38.7021C37.169 38.7094 37.1848 38.7173 37.2013 38.7239C37.2231 38.7326 37.2452 38.7398 37.2674 38.7471C37.2779 38.7506 37.2883 38.7545 37.2988 38.7576C37.3229 38.7648 37.3472 38.7703 37.3716 38.7758C37.3811 38.7779 37.3905 38.7805 37.4002 38.7824C37.4237 38.787 37.4472 38.7901 37.4709 38.7931C37.4821 38.7945 37.4932 38.7964 37.5046 38.7976C37.5256 38.7995 37.5465 38.8004 37.5674 38.8012C37.582 38.8018 37.5964 38.8028 37.6112 38.8028C37.6286 38.8028 37.6459 38.8016 37.6634 38.8009C37.6814 38.8001 37.6995 38.7995 37.7175 38.7978C37.7318 38.7964 37.7459 38.7942 37.7602 38.7922C37.7809 38.7894 37.8015 38.7867 37.8221 38.7828C37.8348 38.7804 37.8473 38.777 37.8598 38.7741C37.8812 38.7691 37.9025 38.7644 37.9237 38.7582C37.9377 38.7541 37.9513 38.7489 37.9652 38.7443C37.9841 38.7379 38.003 38.7319 38.0216 38.7244C38.0418 38.7164 38.0614 38.7069 38.0811 38.6977C38.0927 38.6922 38.1046 38.6874 38.1161 38.6815C38.2109 38.633 38.2994 38.5704 38.3773 38.4944C38.4299 38.4433 38.4761 38.3876 38.5159 38.3286C39.2418 37.258 40.365 36.6359 40.7762 36.8787C41.4086 37.2518 41.984 37.8211 42.5932 38.4238L42.775 38.6033C43.6998 39.5146 44.7088 40.4356 45.9746 40.8098C46.1648 40.866 46.4143 40.9043 46.6858 40.9043C47.205 40.9043 47.8047 40.7643 48.2239 40.3427C48.653 39.9113 48.7752 39.307 48.5593 38.6849Z" fill="white"/>
</svg>
