<svg id="SvgjsSvg1011" width="288" height="288" xmlns="http://www.w3.org/2000/svg" version="1.1" xmlns:xlink="http://www.w3.org/1999/xlink" xmlns:svgjs="http://svgjs.com/svgjs"><defs id="SvgjsDefs1012"></defs><g id="SvgjsG1013"><svg xmlns="http://www.w3.org/2000/svg" fill="none" viewBox="0 0 24 24" width="288" height="288"><path fill="#ffb800" d="M4 7a1 1 0 1 0 0-2 1 1 0 0 0 0 2zm0 6a1 1 0 1 0 0-2 1 1 0 0 0 0 2zm1 5a1 1 0 1 1-2 0 1 1 0 0 1 2 0zM8 5a1 1 0 0 0 0 2h12a1 1 0 1 0 0-2H8zm-1 7a1 1 0 0 1 1-1h12a1 1 0 1 1 0 2H8a1 1 0 0 1-1-1zm1 5a1 1 0 1 0 0 2h12a1 1 0 1 0 0-2H8z" class="color000 svgShape"></path></svg></g></svg>