<svg width="74" height="72" viewBox="0 0 74 72" fill="none" xmlns="http://www.w3.org/2000/svg">
<g clip-path="url(#clip0_1_356)">
<path d="M37.0474 9.60706C21.4291 9.60706 8.72209 21.9888 8.72209 37.2074C8.72209 52.426 21.4291 64.8076 37.0474 64.8076C52.6658 64.8076 65.3727 52.4258 65.3727 37.2072C65.3727 21.9886 52.6658 9.60706 37.0474 9.60706ZM37.0474 62.4075C22.7876 62.4075 11.1852 51.1034 11.1852 37.2072C11.1852 23.3111 22.7876 12.007 37.0474 12.007C51.3086 12.007 62.9096 23.3111 62.9096 37.2072C62.9096 51.1034 51.3086 62.4075 37.0474 62.4075Z" fill="white"/>
<path d="M48.9343 12.1572C48.821 12.1068 48.7015 12.0719 48.5784 12.0563L48.294 12.0191C47.8555 11.9579 47.4208 12.1366 47.1535 12.4786C46.8851 12.8206 46.8248 13.2743 46.9946 13.6714C47.8406 15.6419 48.8481 19.6247 47.5599 20.5391L44.7053 21.6514C42.5439 22.4938 41.0292 24.4282 40.7521 26.7071L40.7336 26.845C40.6659 27.3226 40.2656 27.4522 40.0968 27.4859C39.7915 27.5459 39.3838 27.4739 39.1498 27.0922L37.9268 25.1062C37.4773 24.3753 36.6473 23.9409 35.7853 23.9926C34.917 24.0357 34.1498 24.5386 33.7804 25.3066C32.6807 27.595 31.3001 30.8974 30.9651 33.6322C30.8616 34.4806 31.0168 35.3374 31.4134 36.1115L32.8333 38.8787C33.337 39.8579 34.1093 40.6883 35.0686 41.2788C35.9528 41.8224 37.592 42.9192 38.6363 44.148C39.8248 45.5483 41.4258 46.4533 43.145 46.7233C43.0761 48.9709 43.2276 52.6657 44.7978 54.2977C45.3471 54.8676 46.0355 55.1809 46.7978 55.2061C46.9358 55.2241 47.1784 55.2482 47.4924 55.2482C48.4062 55.2482 49.9321 55.0465 51.3274 53.9233C53.2708 52.3586 54.2671 49.6057 54.2893 45.7404L56.0529 38.0051L56.7228 39.0923C57.2672 39.9767 58.1773 40.5983 59.2167 40.7975C60.2561 40.9968 61.3398 40.7544 62.1884 40.1352L64.8806 38.1671C65.1908 37.9403 65.3731 37.5851 65.3731 37.2071C65.3728 26.4949 58.9195 16.662 48.9343 12.1572ZM60.7101 38.2154C60.4146 38.4301 60.0513 38.5105 59.6904 38.4422C59.3283 38.3739 59.024 38.165 58.8344 37.8566L57.5573 35.7818C57.1362 35.0966 56.343 34.7365 55.5302 34.8651C54.7211 34.9935 54.0831 35.5803 53.9046 36.3604L51.8554 45.3472C51.8356 45.4324 51.8258 45.5201 51.8258 45.6077C51.8258 48.7241 51.1213 50.9513 49.7888 52.0493C48.5709 53.0526 47.1779 52.8353 47.1336 52.8294C46.9747 52.8006 46.8541 52.9254 46.5954 52.6566C45.8282 51.8585 45.4403 49.0733 45.6522 45.8813C45.6769 45.5021 45.5376 45.1241 45.2704 44.8469C45.002 44.5673 44.6201 44.4077 44.2261 44.4077C42.8456 44.4077 41.4995 43.756 40.5328 42.6196C39.3345 41.2072 37.6141 40.0072 36.3826 39.25C35.8038 38.8936 35.3383 38.3944 35.0365 37.8063L33.6166 35.039C33.4356 34.6862 33.3642 34.2974 33.4109 33.9159C33.7127 31.4607 35.0748 28.2974 35.9219 26.513L37.039 28.3262C37.7779 29.5262 39.1707 30.1154 40.592 29.8359C41.9701 29.5611 42.9848 28.5158 43.1745 27.1706L43.2003 26.981C43.369 25.583 44.2964 24.395 45.6203 23.8789L48.5895 22.7221C48.6511 22.6981 48.7126 22.6681 48.7705 22.6345C51.1104 21.2498 50.8074 17.9352 50.1929 15.5088C57.8198 19.9093 62.6893 27.9086 62.9024 36.6135L60.7101 38.2154Z" fill="white"/>
<path d="M31.2408 53.8527L30.4946 53.1266C29.5894 52.2434 28.5327 51.5474 27.3555 51.0553L23.5574 49.4689C22.0266 48.8294 21.0377 47.3677 21.0377 45.7442V43.9381C21.0377 42.8329 20.481 41.7985 19.5487 41.1685C18.6164 40.5397 17.4256 40.3968 16.364 40.7833L10.4502 42.9433C9.8566 43.1606 9.52784 43.7809 9.6928 44.3785C12.4649 54.4382 21.0254 62.2491 31.5021 64.2759C31.5833 64.2915 31.6646 64.2987 31.7435 64.2987C32.2841 64.2987 32.7742 63.9519 32.9282 63.4286L33.379 61.8902C34.2163 59.0332 33.3973 55.9528 31.2408 53.8527ZM31.0107 61.2304L30.8776 61.6816C22.1793 59.5997 15.0894 53.1279 12.3861 44.7999L17.2285 43.0311C17.5401 42.9159 17.8737 42.9567 18.1459 43.1414C18.4181 43.3251 18.5746 43.6155 18.5746 43.9382V45.7443C18.5746 48.3292 20.1497 50.6571 22.587 51.6748L26.385 53.2612C27.2742 53.6332 28.071 54.1588 28.7533 54.8236L29.4996 55.5496C31.0229 57.0339 31.6029 59.2107 31.0107 61.2304Z" fill="white"/>
<path d="M24.1373 13.77C23.7518 13.3068 23.0757 13.1903 22.5498 13.4963C14.4167 18.228 9.26277 26.5393 8.764 35.7278C8.74177 36.1346 8.93271 36.5246 9.27143 36.7634C9.48445 36.9145 9.73701 36.9913 9.99318 36.9913C10.1447 36.9913 10.2961 36.9638 10.439 36.9109L18.0781 33.9732C19.9083 33.2592 20.8528 31.2744 20.2297 29.4528C20.0781 29.0075 20.1952 28.5252 20.5351 28.1928L24.0843 24.7343C25.2962 23.5548 25.9637 21.9851 25.9637 20.3147V18.7535C25.9637 16.9536 25.3147 15.1836 24.1373 13.77ZM23.5005 20.3136C23.5005 21.3433 23.0892 22.3092 22.3417 23.0364L18.7924 26.4948C17.7886 27.474 17.4439 28.8973 17.8934 30.21C18.1053 30.8281 17.7839 31.5013 17.1643 31.7425L11.3983 33.9697C12.3551 26.7108 16.5104 20.2152 22.8244 16.1603C23.2653 16.9584 23.5005 17.8511 23.5005 18.7524V20.3136Z" fill="white"/>
<path d="M37.0475 0.00708008C35.7741 0.00708008 34.4896 0.0706426 33.2298 0.196643C32.5537 0.263861 32.0611 0.854205 32.1301 1.51303C32.1953 2.13108 32.731 2.59064 33.3542 2.59064C33.3961 2.59064 33.4392 2.58825 33.4811 2.58347C34.6571 2.46703 35.8567 2.40713 37.0476 2.40713C37.7273 2.40713 38.2791 1.86952 38.2791 1.20717C38.2791 0.54483 37.7272 0.00708008 37.0475 0.00708008Z" fill="white"/>
<path d="M3.04981 41.6542C2.72841 39.8013 2.56461 37.9018 2.56461 36.007C2.56461 35.6062 2.57197 35.2066 2.58683 34.807C2.61021 34.1447 2.07825 33.5902 1.39837 33.5663C0.724686 33.5316 0.149575 34.0619 0.125041 34.7244C0.108877 35.1502 0.101517 35.5774 0.101517 36.007C0.101517 38.035 0.276431 40.0702 0.620055 42.055C0.722233 42.6406 1.24322 43.0546 1.83306 43.0546C1.90204 43.0546 1.97102 43.0498 2.04116 43.0378C2.71109 42.9274 3.1631 42.3081 3.04981 41.6542Z" fill="white"/>
<path d="M8.1583 54.3601C6.87242 52.4424 5.78627 50.3916 4.93032 48.264C4.68151 47.6472 3.96728 47.3423 3.33429 47.5848C2.70131 47.8259 2.38843 48.522 2.63723 49.1399C3.55467 51.4199 4.71846 53.6172 6.0954 55.6715C6.3318 56.0244 6.72593 56.2152 7.12743 56.2152C7.35892 56.2152 7.593 56.1516 7.80111 56.0209C8.37002 55.6585 8.53021 54.9144 8.1583 54.3601Z" fill="white"/>
<path d="M5.32806 19.9536C4.71471 19.6692 3.97955 19.9224 3.68643 20.52C2.60144 22.734 1.74924 25.0645 1.1532 27.4452C0.991999 28.0896 1.39595 28.7388 2.05722 28.8959C2.15579 28.9187 2.25421 28.9295 2.35033 28.9295C2.90451 28.9295 3.40819 28.5611 3.54616 28.0139C4.10279 25.7928 4.89713 23.6183 5.90938 21.5532C6.20249 20.9544 5.94257 20.2392 5.32806 19.9536Z" fill="white"/>
<path d="M14.5005 8.99136C14.0534 8.49214 13.2764 8.43941 12.7628 8.87619C10.8675 10.489 9.13476 12.2962 7.61379 14.2462C7.20248 14.773 7.30711 15.5266 7.84903 15.9274C8.07185 16.0931 8.33307 16.1722 8.59285 16.1722C8.96476 16.1722 9.33176 16.0078 9.57436 15.6982C10.9943 13.8767 12.6126 12.1895 14.3823 10.6846C14.8947 10.249 14.9476 9.49058 14.5005 8.99136Z" fill="white"/>
<path d="M31.0388 69.1011C28.7248 68.7039 26.4464 68.0739 24.2691 67.2267C23.6361 66.9808 22.9206 67.2795 22.6681 67.8964C22.4157 68.5108 22.7236 69.2091 23.3554 69.4552C25.6892 70.3637 28.1312 71.0392 30.6115 71.4641C30.6829 71.476 30.7543 71.4821 30.8258 71.4821C31.4132 71.4821 31.933 71.0717 32.0388 70.4909C32.1558 69.838 31.7087 69.2163 31.0388 69.1011Z" fill="white"/>
<path d="M46.5265 69.5907C46.3689 68.9451 45.7026 68.5491 45.0438 68.7003C42.7679 69.2271 40.4194 69.5283 38.0624 69.5943C37.3826 69.6123 36.8469 70.1655 36.8666 70.8278C36.8863 71.4782 37.433 71.993 38.0969 71.993C38.108 71.993 38.1202 71.993 38.1338 71.9919C40.6584 71.9212 43.1744 71.5996 45.6129 71.0355C46.2741 70.882 46.683 70.2351 46.5265 69.5907Z" fill="white"/>
<path d="M27.3837 2.47393C27.178 1.84267 26.4847 1.49476 25.8368 1.69388C23.4403 2.43667 21.1127 3.42554 18.9193 4.63154C18.3269 4.95793 18.1188 5.68988 18.4526 6.26715C18.6792 6.6571 19.0967 6.87676 19.5265 6.87676C19.731 6.87676 19.9391 6.82642 20.1299 6.72193C22.1755 5.59637 24.3479 4.67359 26.5831 3.98115C27.231 3.78076 27.5893 3.1052 27.3837 2.47393Z" fill="white"/>
<path d="M18.0325 64.0406C16.0769 62.7793 14.2456 61.3154 12.5879 59.6907C12.1089 59.2214 11.328 59.2179 10.8466 59.6859C10.365 60.1539 10.3625 60.9135 10.8417 61.3839C12.6175 63.1239 14.5794 64.6923 16.6729 66.0435C16.8823 66.178 17.1187 66.2428 17.3515 66.2428C17.7505 66.2428 18.1421 66.0544 18.3786 65.7041C18.7543 65.1518 18.5991 64.4067 18.0325 64.0406Z" fill="white"/>
<path d="M56.5747 65.1734C56.2213 64.607 55.4639 64.4246 54.8826 64.769C53.8703 65.3667 52.8136 65.9186 51.7422 66.4118C51.1277 66.695 50.8629 67.409 51.1535 68.009C51.3641 68.4434 51.8063 68.6978 52.2681 68.6978C52.4442 68.6978 52.6228 68.6605 52.794 68.5826C53.9431 68.0546 55.0748 67.463 56.1598 66.8223C56.741 66.4777 56.9269 65.7397 56.5747 65.1734Z" fill="white"/>
<path d="M73.7338 53.2705C73.3151 52.7461 72.5404 52.6524 72.006 53.0593L60.9222 61.4593C60.6229 61.6872 60.4468 62.0366 60.4468 62.4073V66.0073C60.4468 66.6696 60.9985 67.2073 61.6783 67.2073C62.358 67.2073 62.9098 66.6696 62.9098 66.0073V62.9941L73.517 54.9541C74.0539 54.5474 74.1512 53.7937 73.7338 53.2705Z" fill="white"/>
<path d="M62.0686 61.2684L58.374 60.0685C57.7262 59.8561 57.0304 60.1993 56.8161 60.8269C56.6006 61.4556 56.9492 62.1348 57.5944 62.3449L61.289 63.5449C61.4183 63.5869 61.5501 63.6073 61.6782 63.6073C62.1942 63.6073 62.6745 63.2894 62.8469 62.7865C63.0624 62.1576 62.7139 61.4784 62.0686 61.2684Z" fill="white"/>
<path d="M71.4417 63.1597L68.9786 57.1597C68.8789 56.9161 68.699 56.7109 68.4687 56.5765L62.3111 52.9765C61.7273 52.6358 60.9712 52.8193 60.6214 53.3881C60.2715 53.9569 60.46 54.6937 61.0438 55.0345L66.8456 58.427L69.1547 64.0526C69.348 64.5218 69.8099 64.8073 70.2987 64.8073C70.4514 64.8073 70.6065 64.7797 70.7556 64.7197C71.3876 64.4737 71.6941 63.7752 71.4417 63.1597Z" fill="white"/>
</g>
<defs>
<clipPath id="clip0_1_356">
<rect width="73.8913" height="72" fill="white" transform="translate(0.101517)"/>
</clipPath>
</defs>
</svg>
